<?xml version="1.0" standalone="no"?>
<!DOCTYPE svg PUBLIC "-//W3C//DTD SVG 20010904//EN"
 "http://www.w3.org/TR/2001/REC-SVG-20010904/DTD/svg10.dtd">
<svg version="1.0" xmlns="http://www.w3.org/2000/svg"
 width="48.000000pt" height="55.000000pt" viewBox="0 0 48.000000 55.000000"
 preserveAspectRatio="xMidYMid meet">

<g transform="translate(0.000000,55.000000) scale(0.100000,-0.100000)"
fill="#000000" stroke="none">
<path d="M326 529 c-9 -13 -16 -28 -16 -34 0 -24 -62 -83 -114 -108 -31 -15
-56 -33 -56 -40 0 -22 43 -142 53 -148 5 -4 24 -3 41 2 59 17 134 11 186 -16
27 -14 51 -21 54 -16 3 5 -3 35 -15 67 -13 40 -18 71 -14 96 6 32 3 41 -20 64
-15 15 -36 52 -46 83 -25 70 -33 78 -53 50z m69 -179 c25 -74 44 -135 42 -136
-2 -2 -23 4 -47 12 -43 15 -131 14 -171 -1 -11 -4 -20 9 -32 48 -22 69 -21 74
5 83 42 13 96 55 123 96 15 22 29 38 31 35 2 -2 25 -64 49 -137z"/>
<path d="M312 400 c-13 -17 -34 -35 -48 -40 -13 -5 -24 -14 -24 -20 0 -13 6
-13 38 4 37 19 64 51 60 71 -2 13 -8 10 -26 -15z"/>
<path d="M52 315 c-43 -19 -47 -34 -27 -95 16 -47 45 -77 64 -66 13 9 26 -13
51 -81 13 -37 29 -63 37 -63 24 0 25 27 4 76 -12 25 -21 60 -21 77 0 17 -10
61 -22 99 -24 73 -30 77 -86 53z"/>
</g>
</svg>
