<?xml version="1.0" standalone="no"?>
<!DOCTYPE svg PUBLIC "-//W3C//DTD SVG 20010904//EN"
 "http://www.w3.org/TR/2001/REC-SVG-20010904/DTD/svg10.dtd">
<svg version="1.0" xmlns="http://www.w3.org/2000/svg"
 width="57.000000pt" height="47.000000pt" viewBox="0 0 57.000000 47.000000"
 preserveAspectRatio="xMidYMid meet">

<g transform="translate(0.000000,47.000000) scale(0.100000,-0.100000)"
fill="#000000" stroke="none">
<path d="M174 425 l-14 -35 -70 0 c-58 0 -71 -3 -80 -19 -15 -29 -13 -323 3
-344 11 -16 37 -17 277 -15 l265 3 0 185 0 185 -73 3 c-72 3 -72 3 -87 37
l-14 35 -96 0 -96 0 -15 -35z m195 -92 c96 -71 95 -195 -2 -267 -20 -15 -43
-20 -82 -20 -61 0 -95 18 -133 75 -20 28 -23 44 -20 92 4 46 10 63 34 88 16
17 43 38 59 45 39 18 110 12 144 -13z m161 -23 c0 -16 -7 -20 -35 -20 -28 0
-35 4 -35 20 0 16 7 20 35 20 28 0 35 -4 35 -20z"/>
<path d="M210 281 c-33 -32 -45 -69 -36 -106 26 -101 172 -114 213 -17 32 76
-20 152 -104 152 -36 0 -50 -6 -73 -29z"/>
</g>
</svg>
